# xmcd
#
# Track frame offsets: 
#        150
#        25949
#        62029
#        75703
#        94631
#        117076
#        149119
#        165161
#        207864
#        224329
#        244922
#        263040
#        282702
#
# Disc length: 3954 seconds
#
# Revision: 0
# Processed by: cddbd v1.5.2PL0 Copyright (c) Steve Scherf et al.
# Submitted via: ExactAudioCopy v0.99pb4
#
DISCID=be0f700d
DTITLE=Simon McBride - Nine Lives
DYEAR=2012
DGENRE=Blues
TTITLE0=Down To The Wire (live)
TTITLE1=Take My Hand\\ Hell Waters Rising (live)
TTITLE2=Fire Me Up (live)
TTITLE3=Rich Man Falling (live)
TTITLE4=Fat Pockets (live)
TTITLE5=Down To The River (live)
TTITLE6=Change (live)
TTITLE7=Power Of Soul (live)
TTITLE8=Devils Road (live)
TTITLE9=Coming Home (acoustic)
TTITLE10=Down To The River (acoustic)
TTITLE11=Rich Man Falling (acoustic)
TTITLE12=Devils Road (acoustic)
EXTD=
EXTT0=
EXTT1=
EXTT2=
EXTT3=
EXTT4=
EXTT5=
EXTT6=
EXTT7=
EXTT8=
EXTT9=
EXTT10=
EXTT11=
EXTT12=
PLAYORDER=
